PathFileType	4	(X/Y/Z)	AnatoAlexandra.trc
DataRate	CameraRate	NumFrames	NumMarkers	Units	OrigDataRate	OrigDataStartFrame	OrigNumFrames
300	300	4	44	mm	300	291	1160
Frame#	Time	ASISr			ASISl			PSISl			PSISr			STERr			STERl			STER			XIPH			C6			T8			T10			CLAV_SC			CLAVm			CLAV_ant			CLAV_post			CLAVl			CLAV_AC			SCAP_CP			ACRO_tip			SCAP_AA			SCAPl			SCAPm			SCAP_RS			SCAP_SA			SCAP_IA			DELT			ARMp_up			ARMp_do			ARMl			ARMm			EPICl			EPICm			LARM_elb			LARM_ant			LARMl			LARMm			WRIST			STYLr_up			STYLu			STYLr			MEDH			LATH			LASTC			INDEX			
		X1	Y1	Z1	X2	Y2	Z2	X3	Y3	Z3	X4	Y4	Z4	X5	Y5	Z5	X6	Y6	Z6	X7	Y7	Z7	X8	Y8	Z8	X9	Y9	Z9	X10	Y10	Z10	X11	Y11	Z11	X12	Y12	Z12	X13	Y13	Z13	X14	Y14	Z14	X15	Y15	Z15	X16	Y16	Z16	X17	Y17	Z17	X18	Y18	Z18	X19	Y19	Z19	X20	Y20	Z20	X21	Y21	Z21	X22	Y22	Z22	X23	Y23	Z23	X24	Y24	Z24	X25	Y25	Z25	X26	Y26	Z26	X27	Y27	Z27	X28	Y28	Z28	X29	Y29	Z29	X30	Y30	Z30	X31	Y31	Z31	X32	Y32	Z32	X33	Y33	Z33	X34	Y34	Z34	X35	Y35	Z35	X36	Y36	Z36	X37	Y37	Z37	X38	Y38	Z38	X39	Y39	Z39	X40	Y40	Z40	X41	Y41	Z41	X42	Y42	Z42	X43	Y43	Z43	X44	Y44	Z44
291	9.700000e-01	5.440620e+02	9.843160e+02	-2.947780e+02	5.449340e+02	9.936810e+02	-5.657870e+02	3.571600e+02	1.021650e+03	-4.812870e+02	3.548980e+02	1.020010e+03	-3.893150e+02	5.208050e+02	1.436110e+03	-4.086980e+02	5.208740e+02	1.437940e+03	-4.406600e+02	5.340450e+02	1.418550e+03	-4.231700e+02	6.046820e+02	1.210230e+03	-4.256890e+02	3.828470e+02	1.493860e+03	-4.281850e+02	3.592450e+02	1.400110e+03	-4.340050e+02	3.598330e+02	1.202300e+03	-4.339360e+02	5.120030e+02	1.448870e+03	-4.040980e+02	5.019530e+02	1.455150e+03	-3.723430e+02	4.844160e+02	1.463570e+03	-3.540740e+02	4.704070e+02	1.465270e+03	-3.333770e+02	4.523640e+02	1.476070e+03	-3.234310e+02	4.373810e+02	1.477530e+03	-3.000720e+02	4.673640e+02	1.462760e+03	-2.678460e+02	4.440340e+02	1.464600e+03	-2.490030e+02	4.183730e+02	1.464540e+03	-2.567480e+02	3.894000e+02	1.458900e+03	-2.843320e+02	3.562140e+02	1.439600e+03	-3.108260e+02	3.453640e+02	1.425340e+03	-3.566220e+02	3.626500e+02	1.459770e+03	-3.597510e+02	3.376310e+02	1.304530e+03	-3.428950e+02	4.224470e+02	1.328550e+03	-1.817350e+02	3.737000e+02	1.269130e+03	-2.311690e+02	3.983880e+02	1.192870e+03	-2.130690e+02	4.002210e+02	1.257740e+03	-1.749490e+02	4.686550e+02	1.228550e+03	-2.472660e+02	4.054290e+02	1.175570e+03	-1.356700e+02	4.543780e+02	1.131360e+03	-2.055960e+02	4.146500e+02	1.135960e+03	-1.813480e+02	4.209690e+02	1.091430e+03	-6.491660e+01	4.129710e+02	1.073990e+03	-1.277320e+02	4.895960e+02	1.107010e+03	-9.374870e+01	4.241840e+02	1.014730e+03	-3.697430e+01	4.401580e+02	1.031890e+03	-1.805070e+01	4.332040e+02	9.559730e+02	-2.581340e+01	4.534140e+02	9.903430e+02	1.742780e+01	4.301310e+02	9.233030e+02	9.112670e+00	4.310450e+02	9.391540e+02	2.942170e+01	4.323640e+02	8.906200e+02	1.765340e+00	4.304420e+02	9.139500e+02	6.593140e+01
292	9.733333e-01	5.440470e+02	9.843150e+02	-2.947890e+02	5.449300e+02	9.936820e+02	-5.657890e+02	3.571770e+02	1.021660e+03	-4.812640e+02	3.548950e+02	1020	-3.893020e+02	5.208170e+02	1.436110e+03	-4.087060e+02	5.208670e+02	1.437920e+03	-4.406600e+02	5.340580e+02	1.418560e+03	-4.231790e+02	6.046920e+02	1.210230e+03	-4.256880e+02	3.828280e+02	1.493830e+03	-4.281650e+02	3.592800e+02	1.400130e+03	-4.340210e+02	3.598730e+02	1.202300e+03	-4.339640e+02	5.120070e+02	1.448860e+03	-4.040980e+02	5.019630e+02	1.455150e+03	-3.723370e+02	4.844270e+02	1.463560e+03	-3.540810e+02	4.704050e+02	1.465270e+03	-3.333740e+02	4.523610e+02	1.476050e+03	-3.234380e+02	4.373850e+02	1.477520e+03	-3.000790e+02	4.673690e+02	1.462760e+03	-2.678520e+02	4.440180e+02	1.464590e+03	-2.490160e+02	4.183740e+02	1.464540e+03	-2.567560e+02	3.894130e+02	1.458900e+03	-2.843330e+02	3.562200e+02	1.439610e+03	-3.108070e+02	3.454940e+02	1.425360e+03	-3.567130e+02	3.626580e+02	1.459790e+03	-3.597780e+02	3.376580e+02	1.304530e+03	-3.429100e+02	4.224410e+02	1.328540e+03	-1.817320e+02	3.736950e+02	1.269120e+03	-2.311630e+02	3.983950e+02	1.192890e+03	-2.130840e+02	4.002510e+02	1.257750e+03	-1.749510e+02	4.687180e+02	1.228590e+03	-2.472720e+02	4.054340e+02	1.175570e+03	-1.356730e+02	4.544720e+02	1.131380e+03	-2.056730e+02	4.146550e+02	1.135970e+03	-1.813750e+02	4.209670e+02	1.091420e+03	-6.491690e+01	4.129920e+02	1.073990e+03	-1.277680e+02	4.896010e+02	1.107010e+03	-9.374720e+01	4.242120e+02	1.014730e+03	-3.700970e+01	4.401590e+02	1.031880e+03	-1.806690e+01	4.331770e+02	9.559940e+02	-2.578990e+01	4.534020e+02	9.903500e+02	1.742900e+01	4.301190e+02	9.232980e+02	9.125070e+00	4.310520e+02	9.391320e+02	2.941110e+01	4.323710e+02	8.905990e+02	1.740380e+00	4.304390e+02	9.139480e+02	6.592940e+01
293	9.766667e-01	5.439460e+02	9.843830e+02	-2.948790e+02	5.449270e+02	9.936680e+02	-5.657770e+02	3.571770e+02	1.021670e+03	-4.812820e+02	3.549000e+02	1020	-3.893050e+02	5.208400e+02	1.436120e+03	-4.087010e+02	5.208750e+02	1.437940e+03	-4.406620e+02	5.340790e+02	1.418560e+03	-4.231770e+02	6.047100e+02	1.210220e+03	-4.256990e+02	3.828690e+02	1.493840e+03	-4.282040e+02	3.592550e+02	1.400100e+03	-4.339940e+02	3.598290e+02	1.202300e+03	-4.339330e+02	5.120440e+02	1.448910e+03	-4.041000e+02	5.019690e+02	1.455140e+03	-3.723390e+02	4.844330e+02	1.463570e+03	-3.540850e+02	4.704300e+02	1.465270e+03	-3.333800e+02	4.523890e+02	1.476050e+03	-3.234330e+02	4.373980e+02	1.477510e+03	-3.000850e+02	4.673750e+02	1.462750e+03	-2.678580e+02	4.440320e+02	1.464600e+03	-2.490180e+02	4.183950e+02	1.464550e+03	-2.567590e+02	3.894260e+02	1.458900e+03	-2.843430e+02	3.562020e+02	1.439610e+03	-3.108120e+02	3.455190e+02	1.425360e+03	-3.567290e+02	3.626680e+02	1.459770e+03	-3.597640e+02	3.376670e+02	1.304540e+03	-3.429000e+02	4.224600e+02	1.328530e+03	-1.817310e+02	3.737100e+02	1.269120e+03	-2.311720e+02	3.984110e+02	1.192870e+03	-2.130780e+02	4.002430e+02	1.257750e+03	-1.749620e+02	4.687150e+02	1.228600e+03	-2.472750e+02	4.054570e+02	1.175580e+03	-1.356930e+02	4.543840e+02	1.131360e+03	-2.056210e+02	4.146520e+02	1.135960e+03	-1.813720e+02	4.209820e+02	1.091420e+03	-6.493490e+01	4.129770e+02	1.073990e+03	-1.277530e+02	4.895960e+02	1107	-9.374900e+01	4.243850e+02	1.014770e+03	-3.721760e+01	4.401130e+02	1.031850e+03	-1.803870e+01	4.331390e+02	9.559740e+02	-2.576020e+01	4.534090e+02	9.903230e+02	1.740330e+01	4.301070e+02	9.232970e+02	9.122300e+00	4.310590e+02	9.391310e+02	2.935330e+01	4.323690e+02	8.905830e+02	1.734630e+00	4.304280e+02	9.139390e+02	6.592360e+01
294	9.800000e-01	5.440570e+02	9.843040e+02	-2.947700e+02	5.449470e+02	9.936790e+02	-5.657920e+02	3.571770e+02	1.021660e+03	-4.812890e+02	3.549100e+02	1020	-3.892960e+02	5.208420e+02	1.436120e+03	-4.087040e+02	5.208760e+02	1.437930e+03	-4.406680e+02	5.340600e+02	1.418550e+03	-4.232090e+02	6.047260e+02	1.210230e+03	-4.256840e+02	3.828860e+02	1.493850e+03	-4.282120e+02	3.592540e+02	1.400090e+03	-4.339970e+02	3.598340e+02	1.202300e+03	-4.339380e+02	5.120470e+02	1.448880e+03	-4.040970e+02	5.019770e+02	1.455140e+03	-3.723370e+02	4.844320e+02	1.463560e+03	-3.540830e+02	4.704380e+02	1.465270e+03	-3.333840e+02	4.523980e+02	1.476060e+03	-3.234290e+02	4.373940e+02	1.477500e+03	-3.001020e+02	4.673870e+02	1.462760e+03	-2.678520e+02	4.440440e+02	1.464590e+03	-2.490240e+02	4.183890e+02	1.464530e+03	-2.567590e+02	3.894330e+02	1.458900e+03	-2.843460e+02	3.562080e+02	1.439610e+03	-3.108090e+02	3.455280e+02	1.425340e+03	-3.567260e+02	3.626820e+02	1.459780e+03	-3.597740e+02	3.376890e+02	1.304530e+03	-3.429240e+02	4.224570e+02	1.328530e+03	-1.817370e+02	3.737220e+02	1.269120e+03	-2.311870e+02	3.984050e+02	1.192880e+03	-2.130790e+02	4.002610e+02	1.257740e+03	-1.749540e+02	4.687390e+02	1.228590e+03	-2.472810e+02	4.054820e+02	1.175560e+03	-1.357140e+02	4.543800e+02	1.131360e+03	-2.056250e+02	4.146600e+02	1.135940e+03	-1.813840e+02	4.209690e+02	1.091420e+03	-6.495290e+01	4.129860e+02	1.073970e+03	-1.277610e+02	4.895830e+02	1107	-9.376560e+01	4.244070e+02	1.014750e+03	-3.723610e+01	4.401080e+02	1.031860e+03	-1.804560e+01	4.331800e+02	9.559650e+02	-2.581200e+01	4.534170e+02	9.903350e+02	1.740410e+01	4.301100e+02	9.232930e+02	9.106300e+00	4.310420e+02	9.391160e+02	2.937520e+01	4.323790e+02	8.905770e+02	1.731510e+00	4.304480e+02	9.139310e+02	6.588420e+01
